<?xml version="1.0" encoding="utf-8"?>
<!-- Generator: Adobe Illustrator 16.0.4, SVG Export Plug-In . SVG Version: 6.00 Build 0)  -->
<!DOCTYPE svg PUBLIC "-//W3C//DTD SVG 1.1//EN" "http://www.w3.org/Graphics/SVG/1.1/DTD/svg11.dtd">
<svg version="1.1" id="Layer_1" xmlns="http://www.w3.org/2000/svg" xmlns:xlink="http://www.w3.org/1999/xlink" x="0px" y="0px"
	 width="267.58px" height="72.718px" viewBox="0 0 267.58 72.718" enable-background="new 0 0 267.58 72.718" xml:space="preserve">
<g>
	<path fill="#FFFFFF" d="M59.007,26.813v39.2c-6.412,3.498-18.507,6.705-29.291,6.705c-20.984,0-29.583-9.619-29.583-22.297
		c0-13.99,12.241-21.859,28.271-21.859c7.578,0,14.135,1.457,19.09,3.497v-5.246c0-10.346-6.703-15.883-18.798-15.883
		c-8.306,0-15.301,3.06-19.527,6.266c-3.352-1.603-5.392-4.664-5.976-7.87C7.566,4.955,17.621,0,29.28,0
		C45.746,0,59.007,7.577,59.007,26.813z M29.862,62.226c6.995,0,13.116-1.168,17.633-2.771V42.697
		c-5.537-2.622-12.096-3.788-19.09-3.788c-9.472,0-16.176,3.061-16.176,10.928C12.229,57.269,18.059,62.226,29.862,62.226z"/>
	<path fill="#FFFFFF" d="M136.387,2.624c-6.12,24.626-17.924,50.274-27.542,68.054c-1.748,0.436-3.789,0.582-5.392,0.582
		c-1.749,0-3.789-0.146-5.537-0.582C86.111,49.837,77.368,27.25,70.082,2.624c1.895-0.583,4.663-1.02,7.578-1.02
		c1.749,0,3.206,0.146,4.664,0.437c6.558,21.859,14.573,41.386,20.984,54.793l0.729,1.602c0.146-0.582,0.437-1.02,0.728-1.602
		c7.286-16.031,13.845-33.08,19.965-54.793c1.458-0.291,3.06-0.437,4.663-0.437C132.161,1.604,134.784,2.04,136.387,2.624z"/>
	<path fill="#FFFFFF" d="M207.938,39.783h-51.006c0.875,12.679,9.619,22.15,22.15,22.15c11.367,0,16.613-4.227,20.402-7.141
		c2.914,1.457,5.684,4.955,6.412,8.016c-5.537,4.664-14.135,9.91-26.959,9.91c-20.111,0-34.246-14.137-34.246-36.142
		C144.692,15.301,159.264,0,177.917,0c17.633,0,30.604,12.678,30.604,30.457C208.52,34.1,208.374,35.849,207.938,39.783z
		 M196.278,30.02c0-9.326-4.953-19.528-18.361-19.528c-11.949,0-19.525,8.89-20.838,19.528H196.278z"/>
	<path fill="#FFFFFF" d="M264.622,12.532c-3.789-1.02-8.307-1.457-12.533-1.457c-5.975,0-11.221,1.166-15.008,3.497v56.105
		c-1.895,0.436-3.936,0.582-5.977,0.582s-3.934-0.146-5.975-0.582V9.326C230.813,4.517,241.452,0,252.817,0
		c5.537,0,10.057,0.729,14.719,2.331C267.827,5.829,266.661,9.91,264.622,12.532z"/>
</g>
</svg>
