<?xml version="1.0" encoding="utf-8"?>
<!-- Generator: Adobe Illustrator 16.0.4, SVG Export Plug-In . SVG Version: 6.00 Build 0)  -->
<!DOCTYPE svg PUBLIC "-//W3C//DTD SVG 1.1//EN" "http://www.w3.org/Graphics/SVG/1.1/DTD/svg11.dtd">
<svg version="1.1" id="Layer_1" xmlns="http://www.w3.org/2000/svg" xmlns:xlink="http://www.w3.org/1999/xlink" x="0px" y="0px"
	 width="210px" height="210px" viewBox="0 0 210 210" enable-background="new 0 0 210 210" xml:space="preserve">
<path opacity="0.05" fill="#FFFFFF" d="M40.758,113.461L23.137,95.84l-9.621,9.621l17.621,17.621L40.758,113.461z M17.758,105.461
	l5.379-5.379l13.379,13.379l-5.379,5.379L17.758,105.461z"/>
<polygon opacity="0.05" fill="#FFFFFF" points="83.637,25.583 106.137,3.083 121.137,18.083 130.758,8.461 122.297,0 118.055,0 
	126.516,8.461 121.137,13.84 107.296,0 104.977,0 83.637,21.34 78.258,15.961 94.219,0 89.977,0 74.016,15.961 "/>
<path opacity="0.05" fill="#FFFFFF" d="M121.137,28.84l-15-15l-9.621,9.621l24.621,24.621l39.621-39.621L152.297,0h-2.32
	L121.137,28.84z M121.137,43.84l-20.379-20.379l5.379-5.379l15,15l30-30l5.379,5.379L121.137,43.84z"/>
<path opacity="0.05" fill="#FFFFFF" d="M108.258,45.961L91.137,28.84l-9.621,9.621l17.121,17.121L108.258,45.961z M91.137,33.083
	l12.879,12.879l-5.379,5.379L85.758,38.461L91.137,33.083z"/>
<polygon opacity="0.05" fill="#FFFFFF" points="201.516,23.461 196.137,28.84 168.258,0.961 169.219,0 164.977,0 164.016,0.961 
	196.137,33.083 205.758,23.461 182.297,0 178.055,0 "/>
<path opacity="0.05" fill="#FFFFFF" d="M205.758,53.461L166.137,13.84l-24.621,24.621l9.621,9.621l15-15l5.379,5.379l-15,15
	l9.621,9.621l15-15l15,15L205.758,53.461z M166.137,58.84l-5.379-5.379l15-15l-9.621-9.621l-15,15l-5.379-5.379l20.379-20.379
	l35.379,35.379l-5.379,5.379l-15-15L166.137,58.84z"/>
<path opacity="0.05" fill="#FFFFFF" d="M181.137,58.84l-15,15l-30-30l-9.621,9.621l39.621,39.621l24.621-24.621L181.137,58.84z
	 M130.758,53.461l5.379-5.379l30,30l15-15l5.379,5.379L166.137,88.84L130.758,53.461z"/>
<path opacity="0.05" fill="#FFFFFF" d="M76.137,43.84L51.516,68.461l9.621,9.621l24.621-24.621L76.137,43.84z M55.758,68.461
	l20.379-20.379l5.379,5.379L61.137,73.84L55.758,68.461z"/>
<polygon opacity="0.05" fill="#FFFFFF" points="139.219,0 133.055,0 136.137,3.083 "/>
<path opacity="0.05" fill="#FFFFFF" d="M104.016,60.961l9.621,9.621l9.621-9.621l-9.621-9.621L104.016,60.961z M113.637,66.34
	l-5.379-5.379l5.379-5.379l5.379,5.379L113.637,66.34z"/>
<path opacity="0.05" fill="#FFFFFF" d="M113.637,81.34l-22.5-22.5l-9.621,9.621l32.121,32.121l24.621-24.621l-9.621-9.621
	L113.637,81.34z M113.637,96.34L85.758,68.461l5.379-5.379l22.5,22.5l15-15l5.379,5.379L113.637,96.34z"/>
<path opacity="0.05" fill="#FFFFFF" d="M118.516,106.461l9.621,9.621l25.121-25.121l-9.621-9.621L118.516,106.461z M128.137,111.84
	l-5.379-5.379l20.879-20.879l5.379,5.379L128.137,111.84z"/>
<path opacity="0.05" fill="#FFFFFF" d="M59.016,90.961l9.621,9.621l7.5-7.5l7.5,7.5l9.621-9.621L76.137,73.84L59.016,90.961z
	 M83.637,96.34l-7.5-7.5l-7.5,7.5l-5.379-5.379l12.879-12.879l12.879,12.879L83.637,96.34z"/>
<polygon opacity="0.05" fill="#FFFFFF" points="34.219,0 28.054,0 31.137,3.083 "/>
<polygon opacity="0.05" fill="#FFFFFF" points="46.137,18.083 61.137,3.083 68.637,10.583 78.258,0.961 77.296,0 73.054,0 
	74.016,0.961 68.637,6.34 62.296,0 59.977,0 46.137,13.84 40.758,8.461 49.219,0 44.977,0 36.516,8.461 "/>
<path opacity="0.05" fill="#FFFFFF" d="M38.637,21.34L21.516,38.461l24.121,24.121l9.621-9.621l-14.5-14.5l7.5-7.5L38.637,21.34z
	 M51.016,52.961l-5.379,5.379L25.758,38.461l12.879-12.879l5.379,5.379l-7.5,7.5L51.016,52.961z"/>
<path opacity="0.05" fill="#FFFFFF" d="M61.137,48.083l17.121-17.121L61.137,13.84l-9.621,9.621l7.5,7.5l-7.5,7.5L61.137,48.083z
	 M55.758,23.461l5.379-5.379l12.879,12.879L61.137,43.84l-5.379-5.379l7.5-7.5L55.758,23.461z"/>
<path opacity="0.05" fill="#FFFFFF" d="M29.516,90.461l9.621,9.621l16.621-16.621l-9.621-9.621L29.516,90.461z M39.137,95.84
	l-5.379-5.379l12.379-12.379l5.379,5.379L39.137,95.84z"/>
<path opacity="0.05" fill="#FFFFFF" d="M196.62,103.838l-14.949-14.965l-10.152,9.518l7.05,7.553l-7.289,7.54l17.229,17.087
	L210,109.377v-6.299l-6.411-6.225L196.62,103.838z M208.93,106.219l-20.415,20.133l-13.021-12.913l7.211-7.46l-6.95-7.447
	l5.848-5.482l15.02,15.035l7-7.016L208.93,106.219z"/>
<path opacity="0.05" fill="#FFFFFF" d="M44.016,105.961l24.621,24.621l17.121-17.121l-9.621-9.621l-7.5,7.5l-15-15L44.016,105.961z
	 M68.637,115.583l7.5-7.5l5.379,5.379L68.637,126.34l-20.379-20.379l5.379-5.379L68.637,115.583z"/>
<path opacity="0.05" fill="#FFFFFF" d="M133.891,120.956l24.484,24.621l17.427-17.141l-10.217-9.579l-7.198,7.446l-5.146-5.324
	l15.018-15.018l-9.618-9.618L133.891,120.956z M149.033,120.944l9.354,9.676l7.302-7.554l5.783,5.421l-13.073,12.859l-20.266-20.379
	l20.501-20.388l5.382,5.382L149.033,120.944z"/>
<polygon opacity="0.05" fill="#FFFFFF" points="210,29.977 201.516,38.461 210,46.946 210,42.704 205.758,38.461 210,34.219 "/>
<polygon opacity="0.05" fill="#FFFFFF" points="194.975,0 194.004,0.949 210,16.946 210,12.704 198.271,0.974 199.267,0 "/>
<polygon opacity="0.05" fill="#FFFFFF" points="186.516,83.461 196.137,93.083 203.637,85.583 210,91.946 210,87.704 203.637,81.34 
	196.137,88.84 190.758,83.461 210,64.219 210,59.977 "/>
<polygon opacity="0.05" fill="#FFFFFF" points="210,76.944 210,74.977 209.032,75.944 "/>
<polygon opacity="0.05" fill="#FFFFFF" points="0,59.977 0,64.219 16.137,48.083 36.497,68.443 31.146,73.617 16.128,58.849 
	0,74.977 0,76.944 8.637,85.868 16.154,78.1 21.516,83.461 8.637,96.34 0,87.704 0,91.946 8.637,100.583 25.758,83.461 
	16.119,73.823 8.637,81.555 3.241,75.979 16.146,63.074 31.128,77.806 40.776,68.479 16.137,43.84 "/>
<path opacity="0.05" fill="#FFFFFF" d="M96.516,173.461l24.621,24.621l9.621-9.621l-24.621-24.621L96.516,173.461z M121.137,193.84
	l-20.379-20.379l5.379-5.379l20.379,20.379L121.137,193.84z"/>
<path opacity="0.05" fill="#FFFFFF" d="M159.137,175.082l9.621-9.621l-17.121-17.121l-15.5,15.5l-30-30l-32.121,32.121l9.621,9.621
	l22.5-22.5l52.5,52.5l32.121-32.121l-9.621-9.621l-22.5,22.5l-12.879-12.879l5.879-5.879L159.137,175.082z M158.637,190.582
	l22.5-22.5l5.379,5.379l-27.879,27.879l-52.5-52.5l-22.5,22.5l-5.379-5.379l27.879-27.878l30,30l15.5-15.5l12.879,12.878
	l-5.379,5.379l-7.5-7.5l-10.121,10.121L158.637,190.582z"/>
<path opacity="0.05" fill="#FFFFFF" d="M83.637,186.34l-23-23l-9.621,9.621l32.621,32.621l17.121-17.121l-9.621-9.621L83.637,186.34
	z M83.637,201.34l-28.379-28.379l5.379-5.379l23,23l7.5-7.5l5.379,5.379L83.637,201.34z"/>
<polygon opacity="0.05" fill="#FFFFFF" points="89.977,210 94.219,210 106.137,198.082 118.055,210 122.297,210 106.137,193.84 "/>
<polygon opacity="0.05" fill="#FFFFFF" points="106.137,208.84 104.977,210 107.297,210 "/>
<polygon opacity="0.05" fill="#FFFFFF" points="149.977,210 152.297,210 151.137,208.84 "/>
<polygon opacity="0.05" fill="#FFFFFF" points="164.977,210 169.219,210 173.637,205.582 178.055,210 182.297,210 173.637,201.34 
	"/>
<path opacity="0.05" fill="#FFFFFF" d="M126.516,203.461l6.539,6.539h6.164l6.539-6.539l-9.621-9.621L126.516,203.461z
	 M136.137,208.84l-5.379-5.379l5.379-5.379l5.379,5.379L136.137,208.84z"/>
<path opacity="0.05" fill="#FFFFFF" d="M164.004,150.95l9.664,9.664l7.083-7.506l15.4,15.228l9.626-9.787l-25.157-23.857
	L164.004,150.95z M201.496,158.624l-5.374,5.464l-15.445-15.273l-7.071,7.494l-5.336-5.336l12.384-12.117L201.496,158.624z"/>
<path opacity="0.05" fill="#FFFFFF" d="M100.758,128.461l-9.621-9.621l-9.621,9.621l9.621,9.621L100.758,128.461z M91.137,123.083
	l5.379,5.379l-5.379,5.379l-5.379-5.379L91.137,123.083z"/>
<polygon opacity="0.05" fill="#FFFFFF" points="16.137,149.34 0,133.204 0,137.446 16.137,153.583 31.137,138.583 36.516,143.961 
	16.137,164.34 0,148.204 0,152.446 16.137,168.582 40.758,143.961 31.137,134.34 "/>
<path opacity="0.05" fill="#FFFFFF" d="M46.137,148.84l-32.121,32.121l9.621,9.621l32.121-32.121L46.137,148.84z M18.258,180.961
	l27.879-27.878l5.379,5.379L23.637,186.34L18.258,180.961z"/>
<path opacity="0.05" fill="#FFFFFF" d="M21.516,203.461L28.055,210h6.164l21.539-21.539l-9.621-9.621L21.516,203.461z
	 M31.137,208.84l-5.379-5.379l20.379-20.379l5.379,5.379L31.137,208.84z"/>
<polygon opacity="0.05" fill="#FFFFFF" points="44.977,210 49.219,210 61.137,198.082 73.055,210 77.297,210 61.137,193.84 "/>
<polygon opacity="0.05" fill="#FFFFFF" points="61.137,208.84 59.977,210 62.297,210 "/>
<path opacity="0.05" fill="#FFFFFF" d="M145.749,143.47L99.094,96.029l-9.529,10.481l46.572,46.572L145.749,143.47z M93.709,106.413
	l5.471-6.019l42.345,43.059l-5.388,5.388L93.709,106.413z"/>
<polygon opacity="0.05" fill="#FFFFFF" points="188.637,205.582 210,184.219 210,179.977 188.637,201.34 183.258,195.961 
	210,169.219 210,164.977 179.016,195.961 "/>
<polygon opacity="0.05" fill="#FFFFFF" points="194.975,210 199.266,210 210,199.504 210,195.309 "/>
<polygon opacity="0.05" fill="#FFFFFF" points="198.258,136.461 203.637,131.083 210,137.446 210,133.204 203.637,126.84 
	194.016,136.461 210,152.446 210,148.204 "/>
<polygon opacity="0.05" fill="#FFFFFF" points="210,119.899 208.579,121.557 210,122.932 "/>
<path opacity="0.05" fill="#FFFFFF" d="M76.137,133.84l-7.5,7.5l-22.5-22.5l-9.621,9.621l32.121,32.121l17.121-17.121L76.137,133.84
	z M40.758,128.461l5.379-5.379l22.5,22.5l7.5-7.5l5.379,5.379L68.637,156.34L40.758,128.461z"/>
<polygon opacity="0.05" fill="#FFFFFF" points="18.314,195.941 8.612,186.887 0,195.309 0,199.504 8.661,191.035 13.959,195.98 
	6.515,203.176 13.119,210 17.294,210 10.759,203.246 "/>
<path opacity="0.05" fill="#FFFFFF" d="M8.061,110.496L0,119.899v3.033l16.188,15.667l9.528-10.163L8.061,110.496z M21.557,128.487
	l-5.472,5.837L2.694,121.366l5.519-6.438L21.557,128.487z"/>
<polygon opacity="0.05" fill="#FFFFFF" points="0,109.377 3.219,106.204 0,103.079 "/>
<polygon opacity="0.05" fill="#FFFFFF" points="23.137,11.083 28.516,16.461 1.137,43.84 0,42.704 0,46.946 1.137,48.083 
	32.758,16.461 23.137,6.84 0,29.977 0,34.219 "/>
<polygon opacity="0.05" fill="#FFFFFF" points="18.241,0.979 17.294,0 13.118,0 14.032,0.944 1.137,13.84 0,12.704 0,16.946 
	1.137,18.083 "/>
<polygon opacity="0.05" fill="#FFFFFF" points="0,164.977 0,169.219 1.137,168.082 6.516,173.461 0,179.977 0,184.219 
	10.758,173.461 1.137,163.84 "/>
<rect x="142.121" y="141.949" transform="matrix(0.7071 -0.7071 0.7071 0.7071 -59.3692 143.5734)" fill="#40A629" width="3.005" height="3.006"/>
<rect x="59.135" y="163.963" transform="matrix(0.7071 -0.7071 0.7071 0.7071 -99.2412 91.3412)" fill="#40A629" width="3.005" height="3.006"/>
<rect x="74.63" y="44.455" transform="matrix(0.7071 -0.7071 0.7071 0.7071 -10.1982 67.2945)" fill="#40A629" width="3.005" height="3.006"/>
</svg>
